HIERARCHY
ROOT Hips
{
 OFFSET 0.000000 0.000000 0.000000
 CHANNELS 6 Xposition Yposition Zposition Yrotation Xrotation Zrotation
 JOINT Chest
 {
  OFFSET 0.000000 10.388337 0.005184
  CHANNELS 3 Yrotation Xrotation Zrotation
  JOINT Chest2
  {
   OFFSET 0.000000 10.458247 -0.010579
   CHANNELS 3 Yrotation Xrotation Zrotation
   JOINT Chest3
   {
    OFFSET 0.000000 10.415828 0.000000
    CHANNELS 3 Yrotation Xrotation Zrotation
    JOINT Chest4
    {
     OFFSET 0.000000 10.405206 0.000000
     CHANNELS 3 Yrotation Xrotation Zrotation
     JOINT Neck
     {
      OFFSET 0.000000 15.720090 0.000000
      CHANNELS 3 Yrotation Xrotation Zrotation
      JOINT Head
      {
       OFFSET 0.000000 9.732643 -0.022378
       CHANNELS 3 Yrotation Xrotation Zrotation
       End Site
       {
        OFFSET 0.000000 18.603619 -0.011814
       }
      }
     }
     JOINT RightCollar
     {
      OFFSET -3.167735 10.388953 0.000000
      CHANNELS 3 Yrotation Xrotation Zrotation
      JOINT RightShoulder
      {
       OFFSET -14.584825 0.000000 0.000000
       CHANNELS 3 Yrotation Xrotation Zrotation
       JOINT RightElbow
       {
        OFFSET 0.000000 -31.921689 0.000000
        CHANNELS 3 Yrotation Xrotation Zrotation
        JOINT RightWrist
        {
         OFFSET 0.000000 -25.835217 0.000000
         CHANNELS 3 Yrotation Xrotation Zrotation
         End Site
         {
          OFFSET 0.000000 -19.128920 0.000000
         }
        }
       }
      }
     }
     JOINT LeftCollar
     {
      OFFSET 3.167735 10.388953 0.000000
      CHANNELS 3 Yrotation Xrotation Zrotation
      JOINT LeftShoulder
      {
       OFFSET 14.584825 0.000000 0.000000
       CHANNELS 3 Yrotation Xrotation Zrotation
       JOINT LeftElbow
       {
        OFFSET 0.000000 -31.921689 0.000000
        CHANNELS 3 Yrotation Xrotation Zrotation
        JOINT LeftWrist
        {
         OFFSET 0.000000 -25.835217 0.000000
         CHANNELS 3 Yrotation Xrotation Zrotation
         End Site
         {
          OFFSET 0.000000 -19.128920 0.000000
         }
        }
       }
      }
     }
    }
   }
  }
 }
 JOINT RightHip
 {
  OFFSET -8.403278 -0.025659 -0.002592
  CHANNELS 3 Yrotation Xrotation Zrotation
  JOINT RightKnee
  {
   OFFSET 0.000000 -44.040977 0.002477
   CHANNELS 3 Yrotation Xrotation Zrotation
   JOINT RightAnkle
   {
    OFFSET 0.000000 -42.951162 0.004189
    CHANNELS 3 Yrotation Xrotation Zrotation
    JOINT RightToe
    {
     OFFSET 0.000000 -5.494238 12.197485
     CHANNELS 3 Yrotation Xrotation Zrotation
     End Site
     {
      OFFSET 0.000000 -1.538716 6.371628
     }
    }
   }
  }
 }
 JOINT LeftHip
 {
  OFFSET 8.403278 -0.025659 -0.002592
  CHANNELS 3 Yrotation Xrotation Zrotation
  JOINT LeftKnee
  {
   OFFSET 0.000000 -44.040977 0.002477
   CHANNELS 3 Yrotation Xrotation Zrotation
   JOINT LeftAnkle
   {
    OFFSET 0.000000 -42.951162 0.004189
    CHANNELS 3 Yrotation Xrotation Zrotation
    JOINT LeftToe
    {
     OFFSET 0.000000 -5.494238 12.197485
     CHANNELS 3 Yrotation Xrotation Zrotation
     End Site
     {
      OFFSET 0.000000 -1.538716 6.371628
     }
    }
   }
  }
 }
}
MOTION
Frames: 9
Frame Time: 0.008333
-31.535806 89.965048 171.911484 115.833266 -3.923145 5.471433 3.259097 7.345045 -3.449970 0.128559 0.337633 -0.029002 0.224734 0.590540 -0.050227 2.586111 6.858931 -0.441709 2.077831 7.712402 6.273579 0.971060 -21.375878 11.372471 -5.161260 4.797875 -0.866316 -3.556376 8.306923 -1.313306 -33.567751 -11.300876 16.692908 -14.655225 -14.796389 -15.024779 9.786694 6.052489 6.533642 0.794173 12.048503 -3.450756 32.844338 4.846000 -11.095509 6.376417 -34.573156 30.836397 0.780402 2.905592 1.504195 4.597437 28.734891 2.065988 0.899260 -22.461890 -9.459964 -0.241318 -5.785773 0.373828 6.424536 -35.194049 -0.066071 135.514980 73.890871 134.228683 -6.460969 -13.702283 1.682907 3.315351 3.202827 1.754851
-29.053350 90.151693 170.640913 115.841130 -2.810560 5.898189 3.565768 6.558714 -4.055117 0.150158 0.319870 -0.037054 0.262605 0.559704 -0.064288 3.054383 6.569682 -0.595856 1.953317 7.795804 6.300609 0.719719 -21.209776 11.481697 -5.072872 4.872347 -1.154304 -4.379636 8.289192 -1.762140 -31.316387 -13.561947 19.300826 -14.088474 -15.005107 -14.822849 10.361769 6.229997 6.816811 0.171644 12.627196 -3.538433 33.600396 5.687265 -11.023338 7.128034 -33.446018 30.409961 0.379623 4.853787 1.144639 5.134352 26.122901 1.618942 0.350364 -21.890456 -8.883063 -0.273359 -6.093036 0.037658 7.112482 -38.608776 -0.736414 132.000262 74.699574 130.487196 -7.371600 -14.535976 1.748507 3.539372 3.581303 1.945128
-26.559588 90.352308 169.322747 115.941160 -1.582669 6.376069 3.864004 5.687683 -4.737823 0.167429 0.292908 -0.044974 0.293057 0.512986 -0.078200 3.481007 6.161840 -0.768648 1.804279 7.986740 6.302397 0.443089 -20.843656 11.544354 -5.102776 4.961050 -1.469005 -5.244800 8.331827 -2.229759 -28.788589 -16.032286 21.630690 -13.720744 -15.374459 -14.748510 10.914569 6.476915 7.195813 -0.393864 13.260783 -3.581045 34.152806 6.348068 -11.045217 7.781391 -32.319074 29.959765 0.115600 6.698114 0.707745 5.515433 23.392332 1.125154 -0.304896 -20.818545 -7.959764 -0.280652 -6.765072 -0.437358 7.730555 -41.750294 -1.570849 126.866264 75.863956 124.814419 -8.125197 -15.431776 1.817619 3.682997 4.080840 2.091330
-23.999518 90.559556 167.972530 115.936207 -0.578162 6.650238 4.346524 5.001751 -5.191612 0.182728 0.267510 -0.054772 0.320044 0.468875 -0.095423 3.863830 5.747777 -0.988727 1.638237 8.229078 6.317708 0.132378 -20.379719 11.636851 -5.210251 5.008677 -1.783473 -5.325459 8.646607 -2.531058 -26.862665 -18.922806 23.625861 -13.561335 -15.952997 -14.800500 11.405359 6.744081 7.662799 -0.829424 13.942060 -3.586203 34.527807 6.826874 -11.169165 8.314867 -31.274106 29.478925 0.419400 8.734878 0.487703 5.435937 20.642243 0.657188 -0.895315 -19.015574 -6.800881 -0.264633 -8.177788 -1.133294 8.073838 -44.346675 -2.139079 119.748333 77.197453 116.862435 -8.371267 -16.129081 1.855233 3.505672 4.391599 2.080365
-21.392361 90.768547 166.579332 115.874691 0.132390 6.801644 4.940835 4.540404 -5.490713 0.197453 0.248368 -0.067039 0.345907 0.435489 -0.116942 4.196851 5.390990 -1.256123 1.468591 8.496379 6.347790 -0.188580 -19.867850 11.756581 -5.355375 4.975396 -2.143863 -4.759350 9.174683 -2.713958 -25.466551 -22.109710 25.256669 -13.505620 -16.762046 -14.952506 11.792799 7.015508 8.182678 -1.056876 14.651762 -3.552263 34.708930 7.144667 -11.368828 8.736726 -30.365817 28.959163 1.094184 10.895180 0.342355 4.924394 18.127748 0.332414 -1.178101 -16.552098 -5.532133 -0.189217 -10.552158 -2.165473 7.999367 -46.382579 -2.411957 109.905100 78.492548 105.887375 -8.208554 -16.512859 1.783010 3.139804 4.414516 1.975931
-18.822347 90.977749 165.154534 116.133067 0.818101 7.008826 5.290772 4.013209 -5.833310 0.210306 0.234175 -0.081217 0.368390 0.410641 -0.141782 4.458015 5.094685 -1.558193 1.301314 8.793254 6.377374 -0.499947 -19.300995 11.869990 -5.505860 4.878127 -2.554089 -4.231443 9.659777 -2.885171 -23.977487 -25.348689 26.451012 -13.426042 -17.815248 -15.193190 12.056638 7.314538 8.713737 -1.014369 15.369728 -3.466287 34.636813 7.334963 -11.601133 9.076834 -29.585538 28.371324 1.390251 12.727701 0.030630 4.227462 16.112306 0.139134 -1.013348 -13.664308 -4.162819 0.000622 -13.604145 -3.503930 7.162665 -48.202533 -2.467940 96.046145 79.446978 90.501044 -7.908751 -16.532519 1.567445 2.799671 4.237283 1.880090
-16.327362 91.183151 163.741618 116.913207 1.631705 7.234241 5.222669 3.266594 -6.185314 0.219025 0.222018 -0.096530 0.383614 0.389346 -0.168617 4.625213 4.837269 -1.886184 1.134806 9.129226 6.395173 -0.798515 -18.662234 11.954908 -5.660563 4.765710 -2.957520 -3.830189 9.988636 -3.065951 -22.404623 -28.506700 27.250490 -13.237982 -19.143959 -15.523344 12.197070 7.664892 9.224129 -0.703542 16.069387 -3.317816 34.293062 7.448010 -11.836421 9.356756 -28.892227 27.707539 0.960338 13.985806 -0.364666 3.472155 14.699022 -0.027602 -0.454009 -10.518563 -2.632423 0.343838 -17.060565 -5.096569 5.249434 -50.024390 -2.131521 78.563973 79.487737 71.109292 -7.571456 -16.198482 1.166965 2.511986 3.907658 1.802718
-13.852341 91.376063 162.367198 117.949994 2.320631 7.315964 4.969200 2.577893 -6.362413 0.223596 0.211812 -0.112517 0.391566 0.371476 -0.196632 4.702597 4.622933 -2.228855 0.956101 9.497298 6.403736 -1.111479 -17.963198 12.022989 -5.834068 4.659509 -3.302542 -3.590561 10.248698 -3.328453 -20.879701 -31.569411 27.888430 -12.901326 -20.809222 -15.948460 12.235260 8.014051 9.700658 -0.228618 16.739537 -3.138099 33.741458 7.545578 -12.031660 9.580720 -28.278833 27.042505 0.183532 14.979116 -0.572241 2.516531 13.813787 -0.258912 0.475634 -7.187823 -0.888764 0.873485 -20.831926 -6.982300 2.752743 -51.539044 -1.501079 62.093915 78.080721 52.779600 -7.149763 -15.680274 0.508524 2.124829 3.437916 1.671233
-11.355733 91.549691 161.025266 119.012863 2.669069 7.269580 4.699661 2.184218 -6.379834 0.225895 0.204063 -0.128409 0.395509 0.357889 -0.224463 4.723383 4.453533 -2.563981 0.746483 9.891439 6.407835 -1.477709 -17.212859 12.092359 -6.047559 4.568898 -3.558853 -3.688175 10.462178 -3.777838 -19.343710 -34.484178 28.566908 -12.450324 -22.858202 -16.476637 12.213340 8.349715 10.160634 0.236731 17.343300 -3.002495 33.079842 7.658290 -12.144507 9.765906 -27.773903 26.468088 -0.675624 15.996886 -0.582899 1.286864 13.410149 -0.587418 1.763108 -3.954335 1.120742 1.609541 -24.601431 -9.202284 0.800848 -52.392145 -1.349853 50.201534 75.272833 39.603836 -6.534783 -15.136098 -0.343034 1.416836 2.914394 1.386181
